<svg width="24" height="24" viewBox="0 0 24 24" xmlns="http://www.w3.org/2000/svg"><title>Follow @sortedbyanna on Instagram</title><path d="M12 24C5.373 24 0 18.627 0 12S5.373 0 12 0s12 5.373 12 12-5.373 12-12 12zm-.002-18.996c-1.9 0-2.14.008-2.885.043-.745.034-1.254.152-1.7.325-.46.18-.85.418-1.24.807-.388.388-.627.778-.806 1.238-.173.446-.29.954-.325 1.7C5.008 9.862 5 10.1 5 12s.008 2.14.042 2.885c.034.745.152 1.254.325 1.7.18.46.418.85.808 1.24.39.388.78.627 1.24.806.444.173.953.29 1.698.325.746.034.984.042 2.885.042 1.9 0 2.14-.008 2.885-.042.745-.034 1.254-.152 1.7-.325.46-.18.85-.418 1.238-.807.39-.39.63-.78.808-1.24.173-.445.29-.954.325-1.7.035-.745.043-.983.043-2.884 0-1.9-.008-2.14-.043-2.885-.034-.745-.152-1.254-.325-1.7-.18-.46-.418-.85-.807-1.238-.388-.39-.778-.63-1.238-.808-.445-.173-.954-.292-1.7-.325-.745-.035-.984-.043-2.884-.043zm0 1.26c1.868 0 2.09.008 2.828.042.682.03 1.052.145 1.3.24.326.128.56.28.803.524.244.245.396.478.523.805.096.247.21.617.24 1.3.035.737.042.96.042 2.827 0 1.87-.007 2.09-.04 2.828-.032.682-.146 1.053-.242 1.3-.127.326-.28.56-.523.804-.245.245-.478.396-.805.523-.247.096-.617.21-1.3.24-.737.035-.96.042-2.827.042-1.87 0-2.09-.008-2.828-.042-.682-.03-1.053-.145-1.3-.24-.326-.128-.56-.28-.804-.524-.245-.245-.396-.478-.523-.805-.096-.247-.21-.618-.24-1.3-.035-.738-.042-.96-.042-2.828 0-1.868.008-2.09.042-2.828.03-.682.145-1.052.24-1.3.128-.326.28-.56.524-.803.245-.244.478-.396.805-.523.247-.096.618-.21 1.3-.24.738-.035.96-.042 2.828-.042zm0 8.07c-1.288 0-2.333-1.044-2.333-2.332 0-1.288 1.045-2.332 2.333-2.332 1.288 0 2.332 1.044 2.332 2.332 0 1.288-1.044 2.333-2.332 2.333zm0-5.925c-1.985 0-3.594 1.608-3.594 3.592 0 1.985 1.61 3.594 3.594 3.594 1.984 0 3.593-1.61 3.593-3.594 0-1.984-1.608-3.593-3.592-3.593zm4.575-.143c0-.464-.376-.84-.84-.84-.464 0-.84.376-.84.84 0 .464.376.84.84.84.464 0 .84-.376.84-.84z" fill="#FF7676" fill-rule="evenodd"/></svg>