<svg width="24" height="24" viewBox="0 0 24 24" xmlns="http://www.w3.org/2000/svg"><title>Follow @annaebauer on Twitter</title><g fill="none" fill-rule="evenodd"><path d="M12 24C5.373 24 0 18.627 0 12S5.373 0 12 0s12 5.373 12 12-5.373 12-12 12zm7.75-16.18c-.562.25-1.158.413-1.768.486.643-.386 1.124-.992 1.354-1.706-.604.36-1.265.612-1.955.748-.954-1.014-2.47-1.262-3.698-.603-1.227.658-1.86 2.06-1.543 3.415-2.477-.125-4.784-1.295-6.347-3.22-.274.47-.417 1.006-.416 1.55 0 1.068.543 2.012 1.37 2.564-.49-.015-.967-.147-1.395-.385v.037c0 1.493 1.06 2.74 2.468 3.022-.453.122-.93.14-1.39.052.403 1.254 1.56 2.114 2.876 2.14-1.288 1.015-2.928 1.474-4.556 1.277 1.407.904 3.044 1.384 4.717 1.383 5.66 0 8.756-4.696 8.756-8.77 0-.133-.003-.266-.01-.398.603-.436 1.124-.977 1.537-1.596z" fill="#FF7676"/></g></svg>
