<?xml version="1.0" encoding="UTF-8" standalone="no"?>
<svg width="24px" height="24px" viewBox="0 0 24 24" version="1.1" xmlns="http://www.w3.org/2000/svg" xmlns:xlink="http://www.w3.org/1999/xlink">
    <!-- Generator: Sketch 45 (43475) - http://www.bohemiancoding.com/sketch -->
    <title>Combined Shape</title>
    <desc>Created with Sketch.</desc>
    <defs></defs>
    <g id="Page-1" stroke="none" stroke-width="1" fill="none" fill-rule="evenodd">
        <g id="Home-Page" transform="translate(-175.000000, -7299.000000)" fill="#FF7676">
            <g id="Stacked-Group-2" transform="translate(175.000000, 7299.000000)">
                <g id="Stacked-Group">
                    <g>
                        <g id="facebook">
                            <g id="Group">
                                <path d="M12,24 C5.372583,24 0,18.627417 0,12 C0,5.372583 5.372583,0 12,0 C18.627417,0 24,5.372583 24,12 C24,18.627417 18.627417,24 12,24 Z M13.1927181,13.1565167 L15.5510358,13.1565167 L15.9045825,10.4910976 L13.1927181,10.4910976 L13.1927181,8.78863037 C13.1927181,8.01747796 13.4136849,7.49052381 14.5486503,7.49052381 L16,7.49052381 L16,5.10390597 C15.2976077,5.03256605 14.5918682,4.99791447 13.8857502,5.00009699 C11.7966102,5.00009699 10.3653484,6.24283876 10.3653484,8.52465896 L10.3653484,10.4920863 L8,10.4920863 L8,13.1565167 L10.364344,13.1565167 L10.364344,20 L13.1927181,20 L13.1927181,13.158494 L13.1927181,13.1565167 Z" id="Combined-Shape"></path>
                            </g>
                        </g>
                    </g>
                </g>
            </g>
        </g>
    </g>
</svg>