<?xml version="1.0" encoding="UTF-8" standalone="no"?>
<svg width="138px" height="138px" viewBox="0 0 138 138" version="1.1" xmlns="http://www.w3.org/2000/svg" xmlns:xlink="http://www.w3.org/1999/xlink">
    <!-- Generator: Sketch 45.2 (43514) - http://www.bohemiancoding.com/sketch -->
    <title>Logo</title>
    <desc>Created with Sketch.</desc>
    <defs></defs>
    <g id="Page-1" stroke="none" stroke-width="1" fill="none" fill-rule="evenodd">
        <g id="Desktop" transform="translate(-145.000000, -266.000000)" fill="#A3DBCE">
            <g id="Logo" transform="translate(144.000000, 265.000000)">
                <path d="M70,139 C31.8923523,139 1,108.107648 1,70 C1,31.8923523 31.8923523,1 70,1 C108.107648,1 139,31.8923523 139,70 C139,108.107648 108.107648,139 70,139 Z M70,134.071429 C105.385673,134.071429 134.071429,105.385673 134.071429,70 C134.071429,34.6143271 105.385673,5.92857143 70,5.92857143 C34.6143271,5.92857143 5.92857143,34.6143271 5.92857143,70 C5.92857143,105.385673 34.6143271,134.071429 70,134.071429 Z" id="big" fill-rule="nonzero"></path>
                <path d="M70,130 C36.862915,130 10,103.137085 10,70 C10,36.862915 36.862915,10 70,10 C103.137085,10 130,36.862915 130,70 C130,103.137085 103.137085,130 70,130 Z M82.2796469,85.77231 C82.2796469,91.2430504 76.329017,93.5465201 70.5703429,93.5465201 C60.3966853,93.5465201 54.6380112,83.4688404 54.6380112,83.4688404 L46,90.7631609 C46,90.7631609 53.77421,104.488001 70.5703429,104.488001 C83.2394259,104.488001 93.9889509,97.9615036 93.9889509,85.77231 C93.9889509,73.5831165 85.4469176,68.9761772 75.1772821,65.1370612 C65.9634036,61.6818567 60.684619,59.8582766 60.684619,54.0036246 C60.684619,49.4926632 65.1955804,45.9414808 70.9542545,45.9414808 C79.3043319,45.9414808 84.8710502,53.523735 84.8710502,53.523735 L92.8372161,45.6535471 C92.8372161,45.6535471 84.9670281,35 70.9542545,35 C57.4213703,35 48.975315,44.5018123 48.975315,54.0036246 C48.975315,66.4807518 60.1087516,71.8555143 69.9944754,75.3107187 C77.9606413,78.0940779 82.2796469,80.1096138 82.2796469,85.77231 Z" id="small"></path>
            </g>
        </g>
    </g>
</svg>