<?xml version="1.0" standalone="no"?>
<!DOCTYPE svg PUBLIC "-//W3C//DTD SVG 20010904//EN"
 "http://www.w3.org/TR/2001/REC-SVG-20010904/DTD/svg10.dtd">
<svg version="1.0" xmlns="http://www.w3.org/2000/svg"
 width="700.000000pt" height="700.000000pt" viewBox="0 0 700.000000 700.000000"
 preserveAspectRatio="xMidYMid meet">
<metadata>
Created by potrace 1.11, written by Peter Selinger 2001-2013
</metadata>
<g transform="translate(0.000000,700.000000) scale(0.100000,-0.100000)"
fill="#000000" stroke="none">
<path d="M3298 6995 c-2 -1 -41 -5 -88 -9 -100 -7 -225 -22 -295 -36 -27 -5
-61 -12 -75 -14 -431 -79 -908 -273 -1275 -519 -69 -46 -297 -217 -305 -228
-3 -3 -25 -23 -50 -44 -57 -47 -209 -194 -279 -271 -104 -114 -118 -130 -192
-225 -238 -304 -422 -646 -550 -1016 -33 -98 -81 -259 -95 -326 -20 -90 -53
-272 -59 -322 -4 -33 -9 -69 -11 -80 -18 -98 -25 -572 -11 -715 12 -109 27
-226 41 -295 2 -11 6 -36 10 -55 10 -58 13 -72 35 -165 22 -90 84 -302 101
-340 4 -11 25 -65 46 -120 20 -55 64 -156 97 -225 452 -935 1278 -1616 2274
-1875 72 -19 142 -36 155 -39 13 -2 60 -11 106 -20 46 -9 111 -19 145 -22 34
-3 65 -8 68 -9 15 -10 227 -20 409 -20 188 0 341 8 430 21 144 21 295 48 345
61 33 8 67 16 75 18 109 22 388 117 550 188 119 51 305 146 352 178 14 11 29
19 33 19 24 0 381 256 495 355 111 96 296 282 365 365 21 25 41 47 44 50 4 3
45 55 91 115 332 436 547 915 654 1456 14 70 28 155 32 190 3 35 8 67 10 70
24 41 23 779 -1 818 -1 4 -6 33 -9 66 -3 33 -8 69 -10 80 -2 11 -11 61 -21
110 -98 526 -338 1055 -671 1480 -82 106 -109 137 -214 249 -423 453 -957 783
-1557 961 -102 31 -294 77 -368 89 -54 9 -239 35 -295 41 -56 7 -526 16 -532
10z m502 -258 c14 -3 52 -8 85 -11 326 -33 708 -145 1025 -299 357 -174 619
-363 906 -652 348 -351 598 -756 760 -1229 24 -71 46 -138 48 -150 2 -12 13
-55 25 -96 32 -118 55 -242 76 -402 20 -154 27 -513 13 -673 -47 -531 -217
-1032 -503 -1480 -44 -68 -164 -237 -174 -245 -4 -3 -14 -14 -22 -26 -81 -120
-376 -411 -539 -534 -25 -18 -50 -38 -55 -44 -6 -6 -18 -15 -27 -21 -8 -5 -60
-40 -114 -77 -303 -203 -655 -360 -1009 -449 -66 -16 -136 -32 -155 -35 -19
-3 -54 -10 -77 -15 -22 -5 -65 -11 -95 -15 -29 -3 -64 -7 -78 -10 -164 -26
-582 -26 -790 1 -546 69 -1054 269 -1500 590 -98 70 -100 72 -234 186 -377
322 -698 774 -884 1244 -82 209 -164 498 -187 665 -2 14 -6 48 -10 75 -4 28
-9 58 -10 67 -26 133 -26 663 -1 795 2 10 7 41 10 68 27 212 99 485 187 711
48 124 175 391 213 447 14 21 26 40 26 43 0 14 180 273 256 368 135 168 326
357 523 519 338 276 860 525 1295 617 81 17 120 24 242 45 40 6 90 12 179 21
39 3 71 8 73 9 6 5 495 -3 522 -8z"/>
<path d="M3488 6545 c-2 -1 -68 -5 -148 -9 -80 -3 -154 -8 -165 -10 -11 -2
-47 -7 -80 -11 -237 -27 -587 -124 -805 -222 -106 -48 -126 -57 -235 -116
-631 -338 -1125 -897 -1393 -1577 -49 -124 -122 -368 -137 -458 -3 -18 -12
-63 -19 -100 -8 -37 -17 -96 -21 -132 -3 -36 -8 -72 -10 -80 -21 -80 -21 -538
0 -660 3 -14 7 -50 10 -80 25 -247 133 -613 260 -884 178 -378 468 -759 775
-1016 36 -30 67 -57 70 -60 28 -28 273 -199 335 -234 17 -9 53 -30 80 -46 221
-131 588 -271 850 -324 112 -23 111 -23 200 -36 44 -6 91 -13 105 -15 103 -15
452 -22 566 -10 30 3 80 8 112 11 49 5 228 34 302 49 14 3 35 7 47 9 119 24
358 103 511 168 461 198 910 544 1202 928 19 25 37 47 40 50 13 12 132 192
183 277 143 240 270 555 336 833 29 122 34 148 46 235 3 22 8 51 10 65 3 14 7
52 10 85 3 33 8 80 11 104 11 97 4 478 -11 561 -2 14 -7 45 -10 70 -76 576
-326 1130 -709 1575 -74 86 -252 265 -325 325 -29 25 -59 50 -65 55 -56 51
-256 188 -385 264 -124 73 -386 201 -410 201 -5 0 -31 9 -58 21 -80 34 -312
103 -419 124 -62 12 -191 34 -234 39 -25 3 -56 8 -69 11 -14 2 -86 7 -160 11
-75 3 -148 7 -163 9 -15 1 -29 1 -30 0z m212 -1280 c319 -33 620 -184 869
-433 l94 -94 -203 -199 -203 -199 -86 86 c-190 189 -387 284 -604 289 -212 6
-385 -73 -484 -220 -59 -88 -69 -241 -23 -340 25 -51 121 -154 168 -178 127
-66 220 -111 241 -117 57 -18 472 -184 563 -226 377 -172 577 -378 654 -673
20 -79 28 -160 27 -281 -4 -409 -278 -739 -718 -864 -88 -25 -113 -30 -185
-42 -19 -3 -46 -8 -60 -11 -58 -12 -330 -10 -420 3 -400 59 -735 259 -983 589
l-67 90 22 18 c12 11 45 38 73 62 27 23 97 82 155 131 58 49 107 91 110 94 15
16 73 60 79 60 4 0 23 -23 41 -51 50 -78 201 -230 284 -288 161 -111 318 -163
493 -162 391 1 629 193 578 466 -16 85 -37 127 -91 185 -80 85 -222 162 -454
245 -492 176 -730 310 -916 517 -108 119 -190 297 -211 455 -23 175 4 348 77
502 106 222 281 387 521 493 193 85 426 118 659 93z"/>
</g>
</svg>
