<?xml version="1.0" encoding="UTF-8" standalone="no"?><svg xmlns="http://www.w3.org/2000/svg" xmlns:xlink="http://www.w3.org/1999/xlink"><symbol viewBox="0 0 24 24" id="icon-facebook"><title>Combined Shape</title><path d="M12 24C5.373 24 0 18.627 0 12S5.373 0 12 0s12 5.373 12 12-5.373 12-12 12zm1.193-10.843h2.358l.354-2.666h-2.712V8.79c0-.772.22-1.298 1.356-1.298H16V5.104A20.303 20.303 0 0 0 13.886 5c-2.09 0-3.52 1.243-3.52 3.525v1.967H8v2.665h2.364V20h2.829v-6.843z" fill="#FF7676" fill-rule="evenodd"/></symbol><symbol viewBox="0 0 24 24" id="icon-instagram"><title>Combined Shape</title><path d="M12 24C5.373 24 0 18.627 0 12S5.373 0 12 0s12 5.373 12 12-5.373 12-12 12zm-.002-18.996c-1.9 0-2.139.008-2.885.043-.745.034-1.254.152-1.699.325a3.43 3.43 0 0 0-1.24.807 3.43 3.43 0 0 0-.807 1.24c-.173.445-.29.953-.325 1.698-.034.746-.042.985-.042 2.885s.008 2.139.042 2.885c.034.745.152 1.254.325 1.699.18.46.418.85.808 1.24.389.389.779.628 1.239.807.445.173.954.29 1.699.325.746.034.984.042 2.885.042 1.9 0 2.139-.008 2.885-.042.745-.034 1.254-.152 1.699-.325a3.43 3.43 0 0 0 1.24-.807c.388-.39.627-.78.806-1.24.173-.445.291-.954.325-1.699.035-.746.043-.984.043-2.885 0-1.9-.008-2.139-.043-2.885-.034-.745-.152-1.254-.325-1.699a3.43 3.43 0 0 0-.807-1.24 3.43 3.43 0 0 0-1.24-.806c-.444-.173-.953-.292-1.698-.325-.746-.035-.985-.043-2.885-.043zm0 1.261c1.868 0 2.09.007 2.828.041.682.031 1.052.145 1.299.241.327.127.56.279.805.524.244.244.396.477.523.804.096.247.21.617.24 1.3.035.737.042.959.042 2.827 0 1.869-.007 2.09-.041 2.828-.031.682-.145 1.053-.241 1.3-.127.326-.279.56-.523.804a2.168 2.168 0 0 1-.805.523c-.247.096-.617.21-1.3.241-.737.034-.959.041-2.827.041-1.869 0-2.09-.007-2.828-.04-.682-.032-1.053-.146-1.3-.242a2.168 2.168 0 0 1-.804-.523 2.168 2.168 0 0 1-.523-.805c-.096-.246-.21-.617-.241-1.3-.034-.737-.041-.958-.041-2.827 0-1.868.007-2.09.04-2.828.032-.682.146-1.052.242-1.299.127-.327.278-.56.523-.804.245-.245.478-.397.805-.524.246-.096.617-.21 1.3-.24.737-.035.958-.042 2.827-.042zm0 8.07a2.333 2.333 0 1 1 0-4.665 2.333 2.333 0 0 1 0 4.665zm0-5.926a3.593 3.593 0 1 0 0 7.187 3.593 3.593 0 0 0 0-7.187zm4.575-.142a.84.84 0 1 0-1.68 0 .84.84 0 0 0 1.68 0z" fill="#FF7676" fill-rule="evenodd"/></symbol><symbol viewBox="0 0 24 24" id="icon-twitter"><title>icon</title><path d="M12 24C5.373 24 0 18.627 0 12S5.373 0 12 0s12 5.373 12 12-5.373 12-12 12zm7.75-16.18a6.145 6.145 0 0 1-1.768.486A3.097 3.097 0 0 0 19.336 6.6a6.132 6.132 0 0 1-1.955.748 3.078 3.078 0 0 0-5.241 2.812 8.742 8.742 0 0 1-6.347-3.22 3.068 3.068 0 0 0-.416 1.55c0 1.068.543 2.012 1.37 2.564a3.06 3.06 0 0 1-1.395-.385v.037c0 1.493 1.06 2.74 2.468 3.022-.453.122-.93.14-1.39.052a3.086 3.086 0 0 0 2.876 2.14 6.164 6.164 0 0 1-4.556 1.277 8.715 8.715 0 0 0 4.717 1.383c5.66 0 8.756-4.696 8.756-8.77 0-.133-.003-.266-.01-.398a6.253 6.253 0 0 0 1.537-1.596z" fill="#FF7676" fill-rule="evenodd"/></symbol></svg>