<?xml version="1.0" encoding="utf-8"?><svg xmlns="http://www.w3.org/2000/svg" xmlns:xlink="http://www.w3.org/1999/xlink"><symbol viewBox="0 0 24 24" id="icon-email"><title>Email</title><path d="M12 24C5.373 24 0 18.627 0 12S5.373 0 12 0s12 5.373 12 12-5.373 12-12 12zm5.52-17h-11c-.7 0-1.27.57-1.27 1.27v7.615c0 .7.57 1.27 1.27 1.27h11c.7 0 1.27-.57 1.27-1.27V8.27c0-.7-.57-1.27-1.27-1.27zm-11 .846h11c.232 0 .423.19.423.423v1.094c-.58.49-1.407 1.164-3.983 3.208-.447.354-1.327 1.208-1.94 1.197-.614.01-1.497-.844-1.94-1.198-2.577-2.044-3.405-2.72-3.984-3.208V8.27c0-.233.19-.424.423-.424zm11 8.462h-11a.425.425 0 0 1-.424-.423v-5.42c.603.494 1.555 1.258 3.456 2.768.542.433 1.5 1.388 2.467 1.383.962.008 1.91-.94 2.467-1.383 1.9-1.51 2.853-2.274 3.456-2.77v5.422c0 .233-.19.423-.423.423z" fill="#FF7676"/></symbol><symbol viewBox="0 0 24 24" id="icon-instagram"><title>Follow @sortedbyanna on Instagram</title><path d="M12 24C5.373 24 0 18.627 0 12S5.373 0 12 0s12 5.373 12 12-5.373 12-12 12zm-.002-18.996c-1.9 0-2.14.008-2.885.043-.745.034-1.254.152-1.7.325-.46.18-.85.418-1.24.807a3.43 3.43 0 0 0-.806 1.238c-.173.446-.29.954-.325 1.7C5.008 9.862 5 10.1 5 12s.008 2.14.042 2.885c.034.745.152 1.254.325 1.7.18.46.418.85.808 1.24.39.388.78.627 1.24.806.444.173.953.29 1.698.325.746.034.984.042 2.885.042 1.9 0 2.14-.008 2.885-.042.745-.034 1.254-.152 1.7-.325.46-.18.85-.418 1.238-.807.39-.39.63-.78.808-1.24.173-.445.29-.954.325-1.7.035-.745.043-.983.043-2.884 0-1.9-.008-2.14-.043-2.885-.034-.745-.152-1.254-.325-1.7-.18-.46-.418-.85-.807-1.238a3.397 3.397 0 0 0-1.238-.808c-.445-.173-.954-.292-1.7-.325-.745-.035-.984-.043-2.884-.043zm0 1.26c1.868 0 2.09.008 2.828.042.682.03 1.052.145 1.3.24.326.128.56.28.803.524.244.245.396.478.523.805.096.247.21.617.24 1.3.035.737.042.96.042 2.827 0 1.87-.007 2.09-.04 2.828-.032.682-.146 1.053-.242 1.3-.127.326-.28.56-.523.804a2.166 2.166 0 0 1-.805.523c-.247.096-.617.21-1.3.24-.737.035-.96.042-2.827.042-1.87 0-2.09-.008-2.828-.042-.682-.03-1.053-.145-1.3-.24a2.19 2.19 0 0 1-.804-.524 2.166 2.166 0 0 1-.523-.805c-.096-.247-.21-.618-.24-1.3-.035-.738-.042-.96-.042-2.828 0-1.868.008-2.09.042-2.828.03-.682.145-1.052.24-1.3.128-.326.28-.56.524-.803.245-.244.478-.396.805-.523.247-.096.618-.21 1.3-.24.738-.035.96-.042 2.828-.042zm0 8.07a2.333 2.333 0 1 1 0-4.668 2.333 2.333 0 0 1 0 4.669zm0-5.925a3.593 3.593 0 1 0 3.593 3.592 3.593 3.593 0 0 0-3.592-3.593zm4.575-.143a.84.84 0 1 0-1.68 0 .84.84 0 0 0 1.68 0z" fill="#FF7676" fill-rule="evenodd"/></symbol><symbol viewBox="0 0 24 24" id="icon-twitter"><title>Follow @annaebauer on Twitter</title><path d="M12 24C5.373 24 0 18.627 0 12S5.373 0 12 0s12 5.373 12 12-5.373 12-12 12zm7.75-16.18a6.145 6.145 0 0 1-1.768.486A3.097 3.097 0 0 0 19.336 6.6a6.132 6.132 0 0 1-1.955.748 3.078 3.078 0 0 0-5.241 2.812 8.742 8.742 0 0 1-6.347-3.22 3.068 3.068 0 0 0-.416 1.55c0 1.068.543 2.012 1.37 2.564a3.06 3.06 0 0 1-1.395-.385v.037c0 1.493 1.06 2.74 2.468 3.022-.453.122-.93.14-1.39.052a3.086 3.086 0 0 0 2.876 2.14 6.164 6.164 0 0 1-4.556 1.277 8.715 8.715 0 0 0 4.717 1.383c5.66 0 8.756-4.696 8.756-8.77 0-.133-.003-.266-.01-.398a6.253 6.253 0 0 0 1.537-1.596z" fill="#FF7676" fill-rule="evenodd"/></symbol><symbol viewBox="0 0 138 138" id="logo"><title>Logo</title><g transform="translate(-1 -1)" fill="#A3DBCE" fill-rule="evenodd"><path d="M70 139c-38.108 0-69-30.892-69-69C1 31.892 31.892 1 70 1c38.108 0 69 30.892 69 69 0 38.108-30.892 69-69 69zm0-4.929c35.386 0 64.071-28.685 64.071-64.071 0-35.386-28.685-64.071-64.071-64.071C34.614 5.929 5.929 34.614 5.929 70c0 35.386 28.685 64.071 64.071 64.071z" fill-rule="nonzero"/><path d="M70 130c-33.137 0-60-26.863-60-60s26.863-60 60-60 60 26.863 60 60-26.863 60-60 60zm12.28-44.228c0 5.471-5.951 7.775-11.71 7.775-10.173 0-15.932-10.078-15.932-10.078L46 90.763s7.774 13.725 24.57 13.725c12.67 0 23.419-6.526 23.419-18.716 0-12.189-8.542-16.796-18.812-20.635-9.214-3.455-14.492-5.279-14.492-11.133 0-4.511 4.51-8.063 10.27-8.063 8.35 0 13.916 7.583 13.916 7.583l7.966-7.87S84.967 35 70.954 35c-13.533 0-21.979 9.502-21.979 19.004 0 12.477 11.134 17.852 21.02 21.307C77.96 78.094 82.28 80.11 82.28 85.772z"/></g></symbol></svg>