<svg width="24" height="24" viewBox="0 0 24 24" xmlns="http://www.w3.org/2000/svg"><title>Email</title><path d="M12 24C5.373 24 0 18.627 0 12S5.373 0 12 0s12 5.373 12 12-5.373 12-12 12zm5.52-17h-11c-.7 0-1.27.57-1.27 1.27v7.615c0 .7.57 1.27 1.27 1.27h11c.7 0 1.27-.57 1.27-1.27V8.27c0-.7-.57-1.27-1.27-1.27zm-11 .846h11c.232 0 .423.19.423.423v1.094c-.58.49-1.407 1.164-3.983 3.208-.447.354-1.327 1.208-1.94 1.197-.614.01-1.497-.844-1.94-1.198-2.577-2.044-3.405-2.72-3.984-3.208V8.27c0-.233.19-.424.423-.424zm11 8.462h-11c-.233 0-.424-.19-.424-.423v-5.42c.603.494 1.555 1.258 3.456 2.768.542.433 1.5 1.388 2.467 1.383.962.008 1.91-.94 2.467-1.383 1.9-1.51 2.853-2.274 3.456-2.77v5.422c0 .233-.19.423-.423.423z" fill-rule="nonzero" fill="#FF7676"/></svg>